<svg width="32" height="32" viewBox="0 0 32 32" fill="none" xmlns="http://www.w3.org/2000/svg">
<path d="M23.9998 9.54681C23.9198 9.53348 23.8264 9.53348 23.7464 9.54681C21.9064 9.48015 20.4398 7.97348 20.4398 6.10681C20.4398 4.20014 21.9731 2.66681 23.8798 2.66681C25.7864 2.66681 27.3198 4.21348 27.3198 6.10681C27.3064 7.97348 25.8398 9.48015 23.9998 9.54681Z" stroke="#0247FE" stroke-width="1.5" stroke-linecap="round" stroke-linejoin="round"/>
<path d="M22.6269 19.2537C24.4536 19.5604 26.4669 19.2404 27.8802 18.2937C29.7602 17.0404 29.7602 14.987 27.8802 13.7337C26.4536 12.787 24.4136 12.467 22.5869 12.787" stroke="#0247FE" stroke-width="1.5" stroke-linecap="round" stroke-linejoin="round"/>
<path d="M7.96031 9.54681C8.04031 9.53348 8.13364 9.53348 8.21364 9.54681C10.0536 9.48015 11.5203 7.97348 11.5203 6.10681C11.5203 4.20014 9.98697 2.66681 8.08031 2.66681C6.17364 2.66681 4.6403 4.21348 4.6403 6.10681C4.65364 7.97348 6.12031 9.48015 7.96031 9.54681Z" stroke="#0247FE" stroke-width="1.5" stroke-linecap="round" stroke-linejoin="round"/>
<path d="M9.33358 19.2537C7.50691 19.5604 5.49358 19.2404 4.08025 18.2937C2.20025 17.0404 2.20025 14.987 4.08025 13.7337C5.50692 12.787 7.54691 12.467 9.37358 12.787" stroke="#0247FE" stroke-width="1.5" stroke-linecap="round" stroke-linejoin="round"/>
<path d="M15.9998 19.507C15.9198 19.4936 15.8264 19.4936 15.7464 19.507C13.9064 19.4403 12.4398 17.9336 12.4398 16.067C12.4398 14.1603 13.9731 12.627 15.8798 12.627C17.7864 12.627 19.3198 14.1736 19.3198 16.067C19.3064 17.9336 17.8398 19.4536 15.9998 19.507Z" stroke="#0247FE" stroke-width="1.5" stroke-linecap="round" stroke-linejoin="round"/>
<path d="M12.1193 23.7072C10.2393 24.9605 10.2393 27.0138 12.1193 28.2672C14.2526 29.6938 17.746 29.6938 19.8793 28.2672C21.7593 27.0138 21.7593 24.9605 19.8793 23.7072C17.7593 22.2938 14.2526 22.2938 12.1193 23.7072Z" stroke="#0247FE" stroke-width="1.5" stroke-linecap="round" stroke-linejoin="round"/>
</svg>
