<svg width="32" height="32" viewBox="0 0 32 32" fill="none" xmlns="http://www.w3.org/2000/svg">
<path d="M16 16C19.6819 16 22.6667 13.0153 22.6667 9.33335C22.6667 5.65146 19.6819 2.66669 16 2.66669C12.3181 2.66669 9.33334 5.65146 9.33334 9.33335C9.33334 13.0153 12.3181 16 16 16Z" stroke="#0247FE" stroke-width="1.5" stroke-linecap="round" stroke-linejoin="round"/>
<path d="M4.54688 29.3333C4.54688 24.1733 9.6802 20 16.0002 20C17.2802 20 18.5202 20.1733 19.6802 20.4933" stroke="#0247FE" stroke-width="1.5" stroke-linecap="round" stroke-linejoin="round"/>
<path d="M29.3333 24C29.3333 24.4267 29.28 24.84 29.1733 25.24C29.0533 25.7733 28.84 26.2934 28.56 26.7467C27.64 28.2934 25.9467 29.3334 24 29.3334C22.6267 29.3334 21.3867 28.8133 20.4533 27.96C20.0533 27.6133 19.7066 27.2 19.44 26.7467C18.9466 25.9467 18.6667 25 18.6667 24C18.6667 22.56 19.24 21.24 20.1733 20.28C21.1467 19.28 22.5067 18.6667 24 18.6667C25.5733 18.6667 27 19.3467 27.96 20.44C28.8133 21.3867 29.3333 22.64 29.3333 24Z" stroke="#0247FE" stroke-width="1.5" stroke-miterlimit="10" stroke-linecap="round" stroke-linejoin="round"/>
<path d="M25.9867 23.9731H22.0134" stroke="#0247FE" stroke-width="1.5" stroke-miterlimit="10" stroke-linecap="round" stroke-linejoin="round"/>
<path d="M24.0003 22.0266V26.0132" stroke="#0247FE" stroke-width="1.5" stroke-miterlimit="10" stroke-linecap="round" stroke-linejoin="round"/>
</svg>
