<svg width="32" height="32" viewBox="0 0 32 32" fill="none" xmlns="http://www.w3.org/2000/svg">
<path d="M19.0156 20.5847H12.349" stroke="#0247FE" stroke-width="1.5" stroke-miterlimit="10" stroke-linecap="round" stroke-linejoin="round"/>
<path d="M15.6823 17.3307V23.9974" stroke="#0247FE" stroke-width="1.5" stroke-miterlimit="10" stroke-linecap="round" stroke-linejoin="round"/>
<path d="M16.8799 3.35753L16.8399 3.45087L12.9733 12.4242H9.17328C8.26661 12.4242 7.39995 12.6109 6.61328 12.9442L8.94661 7.37087L8.99995 7.23753L9.09328 7.0242C9.11995 6.9442 9.14662 6.8642 9.18662 6.79753C10.9333 2.75753 12.9066 1.83753 16.8799 3.35753Z" stroke="#0247FE" stroke-width="1.5" stroke-linecap="round" stroke-linejoin="round"/>
<path d="M24.0673 12.6908C23.4673 12.5041 22.8273 12.4241 22.1873 12.4241H12.974L16.8406 3.45076L16.8806 3.35742C17.0806 3.42409 17.2673 3.51742 17.4673 3.59742L20.414 4.83742C22.054 5.51742 23.2006 6.22409 23.894 7.07742C24.0273 7.23742 24.134 7.38409 24.2273 7.55742C24.3473 7.74409 24.4406 7.93076 24.494 8.13076C24.5473 8.25076 24.5873 8.37076 24.614 8.47742C24.974 9.59742 24.7606 10.9708 24.0673 12.6908Z" stroke="#0247FE" stroke-width="1.5" stroke-linecap="round" stroke-linejoin="round"/>
<path d="M28.6956 18.9312V21.5312C28.6956 21.7978 28.6823 22.0645 28.669 22.3312C28.4156 26.9845 25.8156 29.3312 20.8823 29.3312H10.4823C10.1623 29.3312 9.84229 29.3045 9.53562 29.2645C5.29562 28.9845 3.02896 26.7178 2.74896 22.4778C2.70896 22.1712 2.68229 21.8512 2.68229 21.5312V18.9312C2.68229 16.2512 4.30896 13.9445 6.62896 12.9445C7.42896 12.6112 8.28229 12.4245 9.18896 12.4245H22.2023C22.8556 12.4245 23.4956 12.5178 24.0823 12.6912C26.7356 13.5045 28.6956 15.9845 28.6956 18.9312Z" stroke="#0247FE" stroke-width="1.5" stroke-linecap="round" stroke-linejoin="round"/>
<path d="M8.94666 7.37109L6.61333 12.9444C4.29333 13.9444 2.66666 16.2511 2.66666 18.9311V15.0244C2.66666 11.2378 5.36 8.07776 8.94666 7.37109Z" stroke="#0247FE" stroke-width="1.5" stroke-linecap="round" stroke-linejoin="round"/>
<path d="M28.6915 15.0235V18.9302C28.6915 15.9969 26.7448 13.5035 24.0781 12.7035C24.7715 10.9702 24.9715 9.61019 24.6381 8.47685C24.6115 8.35685 24.5715 8.23685 24.5181 8.13019C26.9981 9.41019 28.6915 12.0369 28.6915 15.0235Z" stroke="#0247FE" stroke-width="1.5" stroke-linecap="round" stroke-linejoin="round"/>
</svg>
